<?xml version="1.0" encoding="UTF-8"?><svg xmlns="http://www.w3.org/2000/svg" xmlns:xlink="http://www.w3.org/1999/xlink" fill-opacity="1" color-rendering="auto" color-interpolation="auto" text-rendering="auto" stroke="black" stroke-linecap="square" width="500" stroke-miterlimit="10" shape-rendering="auto" stroke-opacity="1" fill="black" stroke-dasharray="none" font-weight="normal" stroke-width="1" height="656" font-family="'Dialog'" font-style="normal" stroke-linejoin="miter" font-size="12px" stroke-dashoffset="0" image-rendering="auto">
  <!--Generated by ySVG 2.6-->
  <defs id="genericDefs"/>
  <g>
    <defs id="defs1">
      <clipPath clipPathUnits="userSpaceOnUse" id="clipPath1">
        <path d="M0 0 L500 0 L500 656 L0 656 L0 0 Z"/>
      </clipPath>
      <clipPath clipPathUnits="userSpaceOnUse" id="clipPath2">
        <path d="M172 40 L672 40 L672 696 L172 696 L172 40 Z"/>
      </clipPath>
    </defs>
    <g fill="white" text-rendering="geometricPrecision" shape-rendering="geometricPrecision" transform="translate(-172,-40)" stroke="white">
      <rect x="172" width="500" height="656" y="40" clip-path="url(#clipPath2)" stroke="none"/>
    </g>
    <g fill="rgb(255,204,0)" text-rendering="geometricPrecision" shape-rendering="geometricPrecision" transform="matrix(1,0,0,1,-172,-40)" stroke="rgb(255,204,0)">
      <rect x="400.4413" y="55" clip-path="url(#clipPath2)" width="81" rx="4" ry="4" height="30" stroke="none"/>
    </g>
    <g text-rendering="geometricPrecision" stroke-miterlimit="1.45" shape-rendering="geometricPrecision" transform="matrix(1,0,0,1,-172,-40)" stroke-linecap="butt">
      <rect x="400.4413" y="55" clip-path="url(#clipPath2)" fill="none" width="81" rx="4" ry="4" height="30"/>
      <text x="428.2704" xml:space="preserve" y="74.7139" clip-path="url(#clipPath2)" font-family="sans-serif" stroke="none">Start</text>
    </g>
    <g fill="rgb(204,153,255)" text-rendering="geometricPrecision" shape-rendering="geometricPrecision" transform="matrix(1,0,0,1,-172,-40)" stroke="rgb(204,153,255)">
      <rect x="345.9413" width="190" height="30" y="132.5" clip-path="url(#clipPath2)" stroke="none"/>
    </g>
    <g text-rendering="geometricPrecision" stroke-miterlimit="1.45" shape-rendering="geometricPrecision" transform="matrix(1,0,0,1,-172,-40)" stroke-linecap="butt">
      <rect fill="none" x="345.9413" width="190" height="30" y="132.5" clip-path="url(#clipPath2)"/>
      <text x="359.8944" xml:space="preserve" y="152.2139" clip-path="url(#clipPath2)" font-family="sans-serif" stroke="none">Create lattice of generalization</text>
    </g>
    <g fill="rgb(204,153,255)" text-rendering="geometricPrecision" shape-rendering="geometricPrecision" transform="matrix(1,0,0,1,-172,-40)" stroke="rgb(204,153,255)">
      <rect x="376.6913" width="128.5" height="38" y="210" clip-path="url(#clipPath2)" stroke="none"/>
    </g>
    <g text-rendering="geometricPrecision" stroke-miterlimit="1.45" shape-rendering="geometricPrecision" transform="matrix(1,0,0,1,-172,-40)" stroke-linecap="butt">
      <rect fill="none" x="376.6913" width="128.5" height="38" y="210" clip-path="url(#clipPath2)"/>
      <text x="387.2459" xml:space="preserve" y="226.3633" clip-path="url(#clipPath2)" font-family="sans-serif" stroke="none">Test generalizations</text>
      <text x="392.5868" xml:space="preserve" y="241.0645" clip-path="url(#clipPath2)" font-family="sans-serif" stroke="none">with binary search</text>
    </g>
    <g fill="rgb(255,204,0)" text-rendering="geometricPrecision" shape-rendering="geometricPrecision" transform="matrix(1,0,0,1,-172,-40)" stroke="rgb(255,204,0)">
      <rect x="371.0663" width="139.75" height="38" y="505.5" clip-path="url(#clipPath2)" stroke="none"/>
    </g>
    <g text-rendering="geometricPrecision" stroke-miterlimit="1.45" shape-rendering="geometricPrecision" transform="matrix(1,0,0,1,-172,-40)" stroke-linecap="butt">
      <rect fill="none" x="371.0663" width="139.75" height="38" y="505.5" clip-path="url(#clipPath2)"/>
      <text x="378.5653" xml:space="preserve" y="521.8633" clip-path="url(#clipPath2)" font-family="sans-serif" stroke="none">Apply generalization on</text>
      <text x="411.2518" xml:space="preserve" y="536.5645" clip-path="url(#clipPath2)" font-family="sans-serif" stroke="none">the dataset</text>
    </g>
    <g fill="rgb(255,204,0)" text-rendering="geometricPrecision" shape-rendering="geometricPrecision" transform="matrix(1,0,0,1,-172,-40)" stroke="rgb(255,204,0)">
      <path d="M402.9413 592 L440.9413 565.5 L478.9413 592 L440.9413 618.5 Z" fill-rule="evenodd" clip-path="url(#clipPath2)" stroke="none"/>
    </g>
    <g text-rendering="geometricPrecision" stroke-miterlimit="1.45" shape-rendering="geometricPrecision" transform="matrix(1,0,0,1,-172,-40)" stroke-linecap="butt">
      <path fill="none" d="M402.9413 592 L440.9413 565.5 L478.9413 592 L440.9413 618.5 Z" fill-rule="evenodd" clip-path="url(#clipPath2)"/>
      <text x="423.4539" xml:space="preserve" y="596.7139" clip-path="url(#clipPath2)" font-family="sans-serif" stroke="none">k' &gt;= k</text>
    </g>
    <g fill="rgb(255,204,0)" text-rendering="geometricPrecision" shape-rendering="geometricPrecision" transform="matrix(1,0,0,1,-172,-40)" stroke="rgb(255,204,0)">
      <rect x="326.9079" width="228.0667" height="38" y="642.5" clip-path="url(#clipPath2)" stroke="none"/>
    </g>
    <g text-rendering="geometricPrecision" stroke-miterlimit="1.45" shape-rendering="geometricPrecision" transform="matrix(1,0,0,1,-172,-40)" stroke-linecap="butt">
      <rect fill="none" x="326.9079" width="228.0667" height="38" y="642.5" clip-path="url(#clipPath2)"/>
      <text x="329.2118" xml:space="preserve" y="658.8633" clip-path="url(#clipPath2)" font-family="sans-serif" stroke="none">Suppression of every equivalence classes</text>
      <text x="370.245" xml:space="preserve" y="673.5645" clip-path="url(#clipPath2)" font-family="sans-serif" stroke="none">whith less than k reccords </text>
    </g>
    <g fill="rgb(255,204,0)" text-rendering="geometricPrecision" shape-rendering="geometricPrecision" transform="matrix(1,0,0,1,-172,-40)" stroke="rgb(255,204,0)">
      <path d="M403.4413 297 L440.9413 270.5 L478.4413 297 L440.9413 323.5 Z" fill-rule="evenodd" clip-path="url(#clipPath2)" stroke="none"/>
    </g>
    <g text-rendering="geometricPrecision" stroke-miterlimit="1.45" shape-rendering="geometricPrecision" transform="matrix(1,0,0,1,-172,-40)" stroke-linecap="butt">
      <path fill="none" d="M403.4413 297 L440.9413 270.5 L478.4413 297 L440.9413 323.5 Z" fill-rule="evenodd" clip-path="url(#clipPath2)"/>
      <text x="423.5946" xml:space="preserve" y="294.3633" clip-path="url(#clipPath2)" font-family="sans-serif" stroke="none">End of</text>
      <text x="433.6082" xml:space="preserve" y="309.0645" clip-path="url(#clipPath2)" font-family="sans-serif" stroke="none">list</text>
    </g>
    <g fill="rgb(255,204,0)" text-rendering="geometricPrecision" shape-rendering="geometricPrecision" transform="matrix(1,0,0,1,-172,-40)" stroke="rgb(255,204,0)">
      <rect x="187.8825" width="190" height="30" y="577" clip-path="url(#clipPath2)" stroke="none"/>
    </g>
    <g text-rendering="geometricPrecision" stroke-miterlimit="1.45" shape-rendering="geometricPrecision" transform="matrix(1,0,0,1,-172,-40)" stroke-linecap="butt">
      <rect fill="none" x="187.8825" width="190" height="30" y="577" clip-path="url(#clipPath2)"/>
      <text x="193.4948" xml:space="preserve" y="589.3633" clip-path="url(#clipPath2)" font-family="sans-serif" stroke="none">Compute/Store the generalization</text>
      <text x="226.1813" xml:space="preserve" y="604.0645" clip-path="url(#clipPath2)" font-family="sans-serif" stroke="none">and suppression cost</text>
    </g>
    <g fill="rgb(255,204,0)" text-rendering="geometricPrecision" shape-rendering="geometricPrecision" transform="matrix(1,0,0,1,-172,-40)" stroke="rgb(255,204,0)">
      <rect x="508.4413" y="282" clip-path="url(#clipPath2)" width="148" rx="4" ry="4" height="30" stroke="none"/>
    </g>
    <g text-rendering="geometricPrecision" stroke-miterlimit="1.45" shape-rendering="geometricPrecision" transform="matrix(1,0,0,1,-172,-40)" stroke-linecap="butt">
      <rect x="508.4413" y="282" clip-path="url(#clipPath2)" fill="none" width="148" rx="4" ry="4" height="30"/>
      <text x="514.742" xml:space="preserve" y="294.3633" clip-path="url(#clipPath2)" font-family="sans-serif" stroke="none">Return list of combination</text>
      <text x="559.7596" xml:space="preserve" y="309.0645" clip-path="url(#clipPath2)" font-family="sans-serif" stroke="none">and cost</text>
    </g>
    <g fill="rgb(255,204,0)" text-rendering="geometricPrecision" shape-rendering="geometricPrecision" transform="matrix(1,0,0,1,-172,-40)" stroke="rgb(255,204,0)">
      <path d="M361.1912 412.1623 L440.9417 348.8246 L520.6923 412.1623 L440.9417 475.5 Z" fill-rule="evenodd" clip-path="url(#clipPath2)" stroke="none"/>
    </g>
    <g text-rendering="geometricPrecision" stroke-miterlimit="1.45" shape-rendering="geometricPrecision" transform="matrix(1,0,0,1,-172,-40)" stroke-linecap="butt">
      <path fill="none" d="M361.1912 412.1623 L440.9417 348.8246 L520.6923 412.1623 L440.9417 475.5 Z" fill-rule="evenodd" clip-path="url(#clipPath2)"/>
      <text x="402.2518" xml:space="preserve" y="387.4738" clip-path="url(#clipPath2)" font-family="sans-serif" stroke="none">Generalization</text>
      <text x="391.5789" xml:space="preserve" y="402.175" clip-path="url(#clipPath2)" font-family="sans-serif" stroke="none">levels greater than</text>
      <text x="389.578" xml:space="preserve" y="416.8762" clip-path="url(#clipPath2)" font-family="sans-serif" stroke="none">previous one which</text>
      <text x="398.5926" xml:space="preserve" y="431.5773" clip-path="url(#clipPath2)" font-family="sans-serif" stroke="none">satisfy k with no</text>
      <text x="408.5887" xml:space="preserve" y="446.2785" clip-path="url(#clipPath2)" font-family="sans-serif" stroke="none">suppression</text>
      <path fill="none" d="M440.9413 85.0232 L440.9413 124.5" clip-path="url(#clipPath2)"/>
      <path d="M440.9413 132.5 L445.9413 120.5 L440.9413 123.5 L435.9413 120.5 Z" clip-path="url(#clipPath2)" stroke="none"/>
      <path fill="none" d="M440.9413 162.5 L440.9413 202" clip-path="url(#clipPath2)"/>
      <path d="M440.9413 210 L445.9413 198 L440.9413 201 L435.9413 198 Z" clip-path="url(#clipPath2)" stroke="none"/>
      <path fill="none" d="M440.9413 543.5 L440.9413 557.5239" clip-path="url(#clipPath2)"/>
      <path d="M440.9413 565.5239 L445.9413 553.5239 L440.9413 556.5239 L435.9413 553.5239 Z" clip-path="url(#clipPath2)" stroke="none"/>
      <path fill="none" d="M440.9413 618.5037 L440.9413 634.5" clip-path="url(#clipPath2)"/>
      <path d="M440.9413 642.5 L445.9413 630.5 L440.9413 633.5 L435.9413 630.5 Z" clip-path="url(#clipPath2)" stroke="none"/>
      <text x="403.2713" xml:space="preserve" y="635.7139" clip-path="url(#clipPath2)" font-family="sans-serif" stroke="none">No</text>
      <path fill="none" d="M440.9413 248 L440.9413 262.5381" clip-path="url(#clipPath2)"/>
      <path d="M440.9413 270.5381 L445.9413 258.5381 L440.9413 261.5381 L435.9413 258.5381 Z" clip-path="url(#clipPath2)" stroke="none"/>
      <path fill="none" d="M326.9079 658.6141 L282.8825 657.5 L282.8825 615" clip-path="url(#clipPath2)"/>
      <path d="M282.8825 607 L277.8825 619 L282.8825 616 L287.8825 619 Z" clip-path="url(#clipPath2)" stroke="none"/>
      <path fill="none" d="M402.9315 592 L385.8825 592" clip-path="url(#clipPath2)"/>
      <path d="M377.8825 592 L389.8825 597 L386.8825 592 L389.8825 587 Z" clip-path="url(#clipPath2)" stroke="none"/>
      <text x="373.8083" xml:space="preserve" y="566.7139" clip-path="url(#clipPath2)" font-family="sans-serif" stroke="none">Yes</text>
      <path fill="none" d="M282.8825 577 L282.8825 229 L368.6913 229" clip-path="url(#clipPath2)"/>
      <path d="M376.6913 229 L364.6913 224 L367.6913 229 L364.6913 234 Z" clip-path="url(#clipPath2)" stroke="none"/>
      <path fill="none" d="M478.4236 297 L500.4658 297" clip-path="url(#clipPath2)"/>
      <path d="M508.4658 297 L496.4658 292 L499.4658 297 L496.4658 302 Z" clip-path="url(#clipPath2)" stroke="none"/>
      <text x="490.6024" xml:space="preserve" y="331.7139" clip-path="url(#clipPath2)" font-family="sans-serif" stroke="none">Yes</text>
      <path fill="none" d="M440.9413 323.5132 L440.9413 340.8353" clip-path="url(#clipPath2)"/>
      <path d="M440.9413 348.8353 L445.9413 336.8353 L440.9413 339.8353 L435.9413 336.8353 Z" clip-path="url(#clipPath2)" stroke="none"/>
      <text x="403.2713" xml:space="preserve" y="341.3762" clip-path="url(#clipPath2)" font-family="sans-serif" stroke="none">No</text>
      <path fill="none" d="M361.1884 412.1623 L283.207 412.1623 L283.207 229 L368.6913 229" clip-path="url(#clipPath2)"/>
      <path d="M376.6913 229 L364.6913 224 L367.6913 229 L364.6913 234 Z" clip-path="url(#clipPath2)" stroke="none"/>
      <text x="333.5135" xml:space="preserve" y="386.8762" clip-path="url(#clipPath2)" font-family="sans-serif" stroke="none">Yes</text>
      <path fill="none" d="M440.9413 475.4894 L440.9413 497.5" clip-path="url(#clipPath2)"/>
      <path d="M440.9413 505.5 L445.9413 493.5 L440.9413 496.5 L435.9413 493.5 Z" clip-path="url(#clipPath2)" stroke="none"/>
      <text x="403.2713" xml:space="preserve" y="495.2139" clip-path="url(#clipPath2)" font-family="sans-serif" stroke="none">No</text>
    </g>
  </g>
</svg>
